<svg viewBox="0 0 96 96" xmlns="http://www.w3.org/2000/svg">
  <path d="M3 22 H17 M3 33 H13 M3 44 H16" stroke="#ffffff" stroke-opacity=".5" stroke-width="2.6" stroke-linecap="round"/>
  <ellipse cx="30" cy="72" rx="17" ry="3.6" fill="#000" opacity=".3"/>
  <ellipse cx="70" cy="68" rx="16" ry="3.4" fill="#000" opacity=".3"/>
  <circle cx="9" cy="63" r="4.2" fill="#fff" opacity=".22"/>
  <circle cx="15" cy="68" r="3" fill="#fff" opacity=".18"/>

  <!-- 추격자 (청록) -->
  <g stroke="#14203a" stroke-width="2" stroke-linejoin="round" stroke-linecap="round">
    <path d="M26 52 L15 59 L11 69" fill="none" stroke="#1ba8bd" stroke-width="7.5"/>
    <path d="M8 67 L15 71" stroke="#0e7d8f" stroke-width="6"/>
    <path d="M33 35 L26 52" stroke="#3fd3e8" stroke-width="11"/>
    <path d="M30 39 L20 43" stroke="#3fd3e8" stroke-width="6.5"/>
    <circle cx="17.5" cy="44.5" r="3.4" fill="#3fd3e8"/>
    <path d="M26 52 L38 58 L43 67" fill="none" stroke="#3fd3e8" stroke-width="7.5"/>
    <path d="M41 66 L49 68" stroke="#0e7d8f" stroke-width="6"/>
    <path d="M34 37.5 L46 36" stroke="#3fd3e8" stroke-width="7"/>
    <circle cx="51" cy="35.5" r="4.2" fill="#3fd3e8"/>
    <circle cx="30" cy="24" r="11.5" fill="#3fd3e8"/>
  </g>
  <path d="M22.5 16.5 a10 10 0 0 1 7 -3.4" stroke="#dffbff" stroke-width="2.2" fill="none" stroke-linecap="round" opacity=".7"/>
  <ellipse cx="35.5" cy="23" rx="3.1" ry="3.7" fill="#fff" stroke="#14203a" stroke-width="1.1"/>
  <circle cx="36.6" cy="24" r="1.5" fill="#14203a"/>
  <path d="M30.5 17.5 L38.8 21.2" stroke="#14203a" stroke-width="2.4" stroke-linecap="round"/>
  <rect x="31" y="29" width="8.6" height="4.4" rx="1.6" fill="#fff" stroke="#14203a" stroke-width="1.3"/>
  <path d="M35.3 29 V33.4 M33.2 29 V33.4 M37.4 29 V33.4" stroke="#14203a" stroke-width=".9"/>
  <path d="M17 14 q2.4 3.4 0 5 q-2.4 -1.6 0 -5 Z" fill="#bfeaff" stroke="#14203a" stroke-width="1"/>

  <path d="M57 26 l2.2 4.4 4.8 -1.6 -2.4 4.4 4.4 2.4 -4.9 1.4 1.5 4.8 -4.3 -2.6 -2.5 4.3 -1.3 -4.9 -4.9 1.3 3.1 -3.9 -4 -3 5 -.6 Z" fill="#ffd93d" stroke="#14203a" stroke-width="1.6" stroke-linejoin="round"/>

  <!-- 선두 (빨강) -->
  <g stroke="#14203a" stroke-width="2" stroke-linejoin="round" stroke-linecap="round">
    <path d="M71 47 L61 54 L57 64" fill="none" stroke="#e04848" stroke-width="7.5"/>
    <path d="M54 62 L61 66" stroke="#a83232" stroke-width="6"/>
    <path d="M67 30 L71 47" stroke="#ff6f6f" stroke-width="11"/>
    <path d="M69 33 L79 29" stroke="#ff6f6f" stroke-width="6.5"/>
    <circle cx="83" cy="27.5" r="3.6" fill="#ff6f6f"/>
    <path d="M71 47 L82 52 L86 62" fill="none" stroke="#ff6f6f" stroke-width="7.5"/>
    <path d="M84 61 L92 64" stroke="#a83232" stroke-width="6"/>
    <circle cx="66" cy="18.5" r="11" fill="#ff6f6f"/>
  </g>
  <path d="M60 10.5 a9.6 9.6 0 0 1 7 -2.8" stroke="#ffd6d6" stroke-width="2.2" fill="none" stroke-linecap="round" opacity=".7"/>
  <ellipse cx="60.5" cy="16.5" rx="3.3" ry="4" fill="#fff" stroke="#14203a" stroke-width="1.1"/>
  <circle cx="59.6" cy="17.5" r="1.6" fill="#14203a"/>
  <path d="M56.5 11.5 Q60 9.5 63.5 11" stroke="#14203a" stroke-width="2.2" fill="none" stroke-linecap="round"/>
  <ellipse cx="60.5" cy="24.5" rx="3" ry="3.6" fill="#7a1f2b" stroke="#14203a" stroke-width="1.2"/>
  <path d="M58 25.6 q2.5 2 5 0" fill="#ff9d9d"/>
  <path d="M74 6 l1.2 5 M78 8.5 l-1.8 4" stroke="#ffd93d" stroke-width="2" stroke-linecap="round"/>
</svg>
